<?xml version="1.0" encoding="utf-8"?>
<!-- Generator: Adobe Illustrator 19.1.0, SVG Export Plug-In . SVG Version: 6.00 Build 0)  -->
<!DOCTYPE svg PUBLIC "-//W3C//DTD SVG 1.1//EN" "http://www.w3.org/Graphics/SVG/1.1/DTD/svg11.dtd">
<svg version="1.1" xmlns="http://www.w3.org/2000/svg" xmlns:xlink="http://www.w3.org/1999/xlink" x="0px" y="0px"
	 viewBox="-165 372.4 330.6 49.2" style="enable-background:new -165 372.4 330.6 49.2;" xml:space="preserve" width="330" height="50">
<style type="text/css">
	.st0{fill:#333333;}
	.st1{fill:#F27022;}
	.st2{fill:#FFFFFF;}
</style>
<g id="Calque_1">
	<g>
		<path class="st0" d="M-88.7,400.2h-2.5v10h-3.6v-26.1c2.6-0.1,5.3-0.2,7.3-0.2c5.6,0,9.2,2.8,9.2,7.3
			C-78.3,397.1-82.9,400.2-88.7,400.2z M-88.1,387h-3.1v10.3h2.8c3.4,0,6.3-1.9,6.3-5.4C-82.1,389.1-84.2,387-88.1,387z"/>
		<path class="st0" d="M-55.8,410.3v-11.9H-70v11.9h-3.6v-26.1h3.6v11h14.1v-11h3.6v26.1H-55.8z"/>
		<path class="st0" d="M-38.5,400.2H-41v10h-3.6v-26.1c2.6-0.1,5.3-0.2,7.3-0.2c5.6,0,9.2,2.8,9.2,7.3
			C-28.1,397.1-32.7,400.2-38.5,400.2z M-37.9,387H-41v10.3h2.8c3.4,0,6.3-1.9,6.3-5.4C-31.9,389.1-34,387-37.9,387z"/>
		<path class="st0" d="M-13,416.6c-2.4,0-4.6-0.7-5.7-1.6l0.5-3.1c1.5,1.1,3.6,1.8,5.7,1.8c3.3,0,5.8-1.9,5.8-4.7
			c0-3.1-3-5.1-7.4-5.4v-2.1c3.6-0.6,6-2.4,6-4.9c0-2-1.6-3-3.6-3c-1.8,0-3.6,0.8-5.3,2l-0.2-2.6c1.4-1.3,3.8-2.3,6.3-2.3
			c3.4,0,6.3,2.1,6.3,5.3c0,3-2.1,4.9-4.3,5.7v0.1c3.3,1,5.7,3.1,5.7,6.6C-3.3,413.1-7.6,416.6-13,416.6z"/>
		<path class="st0" d="M7.8,400.2H5.4v10H1.7v-26.1c2.6-0.1,5.3-0.2,7.3-0.2c5.6,0,9.2,2.8,9.2,7.3C18.2,397.1,13.6,400.2,7.8,400.2
			z M8.5,387H5.4v10.3h2.8c3.4,0,6.3-1.9,6.3-5.4C14.5,389.1,12.3,387,8.5,387z"/>
		<path class="st0" d="M23,410.3v-26.1h3.6V407h10.9v3.3H23z"/>
		<path class="st0" d="M68.9,408.5c-1.8,1.2-4.6,2.3-8.3,2.3c-7,0-12.9-4.6-12.9-13.1c0-8.6,6.2-14,14.1-14c2.7,0,5.1,0.6,7.1,1.4
			l-0.4,3.2c-2-0.8-4.6-1.5-7.2-1.5c-5.4,0-9.8,4.3-9.8,10.4c0,6.6,4.4,10.3,9.9,10.3c3,0,5.9-1.1,7.7-2.4L68.9,408.5z"/>
		<path class="st0" d="M87.1,401H74.5c0,3.6,2,6.7,6,6.7c2.2,0,4.2-0.5,6.3-1.5l-0.2,2.9c-2,1-4.1,1.5-6.8,1.5
			c-5.4,0-8.6-4.2-8.6-9.7c0-6.2,3.9-10.3,8.8-10.3c4.7,0,7.3,3.4,7.3,7.7C87.3,399.2,87.2,400.4,87.1,401z M79.5,393.4
			c-2.7,0-4.4,2.6-4.8,5.1h9.4C84.1,395.6,82.3,393.4,79.5,393.4z"/>
		<path class="st0" d="M103.8,410.3v-12.2c0-2.9-1.8-4.4-4.4-4.4c-1.6,0-3.3,0.5-4.4,1.3v15.3h-3.4v-18.9l3.3-0.3l-0.1,2.2h0.2
			c1.4-1.3,3.6-2.5,6.2-2.5c3.4,0,6.2,2.3,6.2,6.1v13.5H103.8z"/>
		<path class="st0" d="M118.2,410.7c-3.1,0-5-2-5-4.8c0-1.2,0-6.7,0-10.3v-1.6h-1.7v-1.4l4.6-5.1h0.4v3.7h6.1v2.8h-6.1
			c0,0,0,7.4,0,10.7c0,2,1,3,3,3c1,0,2.1-0.1,3.3-0.5v2.5C121.5,410.3,119.9,410.7,118.2,410.7z"/>
		<path class="st0" d="M136.1,395c-1-0.5-2.1-0.8-3.3-0.8c-1.2,0-2.4,0.6-3.1,1.4v14.8h-3.4v-18.9l3.3-0.3l-0.1,2.8h0.1
			c1-1.8,2.6-3,4.6-3c1,0,1.8,0.2,2.5,0.6L136.1,395z"/>
		<path class="st0" d="M154.6,410.2c-0.5,0.2-1.3,0.3-2,0.3c-1.5,0-2.6-0.7-2.9-2.3h-0.2c-1.3,1.3-3.2,2.4-5.8,2.4
			c-3,0-5.3-2-5.3-4.9c0-3.5,3-6.7,11-7.1v-2.4c0-1.7-1-2.8-2.8-2.8c-1.9,0-4.4,0.9-6.5,2.3l-0.3-2.6c2.1-1.5,4.8-2.5,7.9-2.5
			c3.1,0,5.2,1.8,5.2,4.9c0,1.2-0.1,8.9-0.1,9.7c0,1.5,0.7,2.3,2.2,2.4L154.6,410.2z M149.3,401.2c-6.2,0.3-7.6,2.6-7.6,4.1
			c0,1.6,1.2,2.7,3.3,2.7c1.7,0,3.4-0.8,4.4-1.7V401.2z"/>
		<path class="st0" d="M159,410.3v-29.9h3.4v29.9H159z"/>
	</g>
	<g id="Calque_4">
		<rect x="-165" y="372.4" class="st1" width="49.2" height="49.2"/>
	</g>
</g>
<g id="Calque_2">
	<path class="st2" d="M-140,380.4l-19,4.2v24.1l19.4,5.3h0.9l17.7-6.4v-23L-140,380.4z M-139.1,412.5l-18.4-5v-21.8l17.4-4l17.7,4
		l0,20.7L-139.1,412.5z"/>
	<polygon class="st2" points="-155.7,387.1 -140,383.5 -127,386.5 -137.7,390.3 -124.4,387.7 -124.4,405.1 -139.2,410.3
		-154.6,406.4 -140.9,393.7 -139.3,408.1 -138.6,390.6 -154.2,387.5 -141.9,392 -155.7,404.4 	"/>
</g>
</svg>
